<?xml version="1.0" encoding="utf-8"?>
<!-- Generator: Adobe Illustrator 16.0.3, SVG Export Plug-In . SVG Version: 6.00 Build 0)  -->
<!DOCTYPE svg PUBLIC "-//W3C//DTD SVG 1.1//EN" "http://www.w3.org/Graphics/SVG/1.1/DTD/svg11.dtd">
<svg version="1.1" id="Layer_1" xmlns="http://www.w3.org/2000/svg" xmlns:xlink="http://www.w3.org/1999/xlink" x="0px" y="0px"
	 width="86.624px" height="50.404px" viewBox="0 0 86.624 50.404" enable-background="new 0 0 86.624 50.404" xml:space="preserve">
<path fill="#F44336" d="M76.452,3.813C73.486,1.188,69.309,0,63.918,0H56v5h6.898c7.875,0,11.813,3.375,11.813,10.031
	c0,3.398-1.072,6.17-3.217,8.033C69.35,24.927,66.239,26,62.161,26H56v5h6.618c5.602,0,10.049-1.469,13.342-4.516
	c3.292-3.046,4.938-6.871,4.938-11.652S79.417,6.438,76.452,3.813z"/>
<g>
	<path fill="#F44336" d="M51.397,50.404h-5.871v-33.82c0-2.672,0.164-5.94,0.492-9.809h-0.141c-0.563,2.272-1.067,3.901-1.512,4.887
		L27.139,50.404h-2.883L7.065,11.943c-0.491-1.125-0.997-2.849-1.512-5.168h-0.14c0.188,2.016,0.28,5.309,0.28,9.879v33.75h-5.694
		V-0.01h7.805l15.469,35.156c1.195,2.694,1.97,4.711,2.32,6.047h0.211c1.007-2.766,1.816-4.828,2.426-6.188L44.014-0.01h7.383
		V50.404z"/>
</g>
<g>
	<path fill="#F44336" d="M72,49.059c0,0.598-0.647,1.345-1.517,1.345H57.574c-0.869,0-1.574-0.747-1.574-1.345v-7.155
		c0-0.599,0.705-1.5,1.574-1.5h12.909c0.869,0,1.517,0.902,1.517,1.5V49.059z"/>
	<circle fill="#F44336" stroke="#FFFFFF" stroke-miterlimit="10" cx="62.938" cy="46.092" r="2.688"/>
	<circle fill="#FFCDD2" cx="70.375" cy="42.029" r="0.5"/>
	<path fill="#FFFFFF" d="M71,46.211c0,0.106-0.087,0.193-0.195,0.193h-2.61c-0.107,0-0.194-0.087-0.194-0.193v-0.611
		c0-0.108,0.087-0.195,0.194-0.195h2.61c0.108,0,0.195,0.087,0.195,0.194V46.211z"/>
	<path fill="#FFFFFF" d="M71,48.211c0,0.106-0.087,0.193-0.195,0.193h-2.61c-0.107,0-0.194-0.087-0.194-0.193v-0.611
		c0-0.108,0.087-0.195,0.194-0.195h2.61c0.108,0,0.195,0.087,0.195,0.194V48.211z"/>
	<g>
		<polygon fill="#F44336" points="63,41.404 59,41.404 61,39.404 63,39.404 		"/>
		<polygon fill="#F44336" points="63,41.404 67,41.404 65,39.404 63,39.404 		"/>
	</g>
</g>
<g>
	<path fill="#F44336" d="M82.505,0.373h-1.011v3.13h-0.41v-3.13h-1.008V0.002h2.429V0.373z"/>
	<path fill="#F44336" d="M86.624,3.503h-0.407V1.154c0-0.187,0.011-0.413,0.033-0.682h-0.01c-0.039,0.158-0.074,0.271-0.104,0.339
		l-1.196,2.69h-0.2l-1.194-2.671c-0.033-0.078-0.068-0.198-0.104-0.359h-0.01c0.013,0.141,0.02,0.369,0.02,0.687v2.344h-0.396V0.001
		h0.542l1.073,2.44c0.083,0.188,0.138,0.327,0.161,0.421h0.016c0.069-0.192,0.126-0.336,0.168-0.431L86.111,0h0.513L86.624,3.503
		L86.624,3.503z"/>
</g>
</svg>
